<svg id="레이어_1" data-name="레이어 1" xmlns="http://www.w3.org/2000/svg" viewBox="0 0 330 763.98"><defs><style>.cls-1{fill:none;stroke:#606060;stroke-width:10px;}.cls-1,.cls-2{stroke-miterlimit:10;}.cls-2{stroke:#000;stroke-width:3px;}</style></defs><path class="cls-1" d="M358.4,287.77a11.72,11.72,0,0,0-3.93-7.23c-28.77-24.78-32.92-54.59-37.72-89.1-3.24-23.3-6.6-47.39-18-71.38-12.33-25.88-35.3-49.79-63.25-61.22a12.26,12.26,0,0,0,.17-1.93,35.65,35.65,0,0,0-71.3,0,11.92,11.92,0,0,0,.22,2.25C137.42,70,114.92,91.4,101.27,120.07c-11.42,24-14.78,48.07-18,71.37-4.8,34.51-9,64.32-37.72,89.1a11.72,11.72,0,0,0-3.93,7.23,17.8,17.8,0,0,0-1.6,7.49c0,17.33,23,24.85,43.11,29.47,21.78,5,51.75,8.5,84.57,9.87,5.5,14.2,17.91,24.14,32.32,24.14s26.81-9.94,32.32-24.14c32.32-1.35,61.82-4.74,83.55-9.64,20.55-4.63,44.13-12.19,44.13-29.7A17.8,17.8,0,0,0,358.4,287.77ZM200,44.87a12.05,12.05,0,0,1,11.16,7.56,86.7,86.7,0,0,0-22.4.2A12,12,0,0,1,200,44.87ZM67.65,295.23c13.09-6,49.22-14,106.21-15.93a111.34,111.34,0,0,0-8.73,31.55C110.21,308.3,79.28,300.53,67.65,295.23ZM200,335.13c-6.37,0-11.75-7.75-11.75-16.92,0-12,6.79-31.32,11.75-37.14,5,5.82,11.75,25.18,11.75,37.14C211.75,327.38,206.37,335.13,200,335.13Zm34.87-24.28a111.26,111.26,0,0,0-8.73-31.55c57,1.93,93.15,9.94,106.22,15.93C320.73,300.55,289.76,308.31,234.87,310.85Z" transform="translate(-35 -16.26)"/><path class="cls-2" d="M358.4,707.77a11.72,11.72,0,0,0-3.93-7.23c-28.77-24.78-32.92-54.59-37.72-89.1-3.24-23.3-6.6-47.39-18-71.38-12.33-25.88-35.3-49.79-63.25-61.22a12.26,12.26,0,0,0,.17-1.93,35.65,35.65,0,0,0-71.3,0,11.92,11.92,0,0,0,.22,2.25c-27.15,10.81-49.65,32.24-63.3,60.91-11.42,24-14.78,48.07-18,71.37-4.8,34.51-9,64.32-37.72,89.1a11.72,11.72,0,0,0-3.93,7.23,17.8,17.8,0,0,0-1.6,7.49c0,17.33,23,24.85,43.11,29.47,21.78,5,51.75,8.5,84.57,9.87,5.5,14.2,17.91,24.14,32.32,24.14s26.81-9.94,32.32-24.14c32.32-1.35,61.82-4.74,83.55-9.64,20.55-4.63,44.13-12.19,44.13-29.7A17.8,17.8,0,0,0,358.4,707.77ZM200,464.87a12.05,12.05,0,0,1,11.16,7.56,86.7,86.7,0,0,0-22.4.2A12,12,0,0,1,200,464.87ZM67.65,715.23c13.09-6,49.22-14,106.21-15.93a111.34,111.34,0,0,0-8.73,31.55C110.21,728.3,79.28,720.53,67.65,715.23ZM200,755.13c-6.37,0-11.75-7.75-11.75-16.92,0-12,6.79-31.32,11.75-37.14,5,5.82,11.75,25.18,11.75,37.14C211.75,747.38,206.37,755.13,200,755.13Zm34.87-24.28a111.26,111.26,0,0,0-8.73-31.55c57,1.93,93.15,9.94,106.22,15.93C320.73,720.55,289.76,728.31,234.87,730.85Z" transform="translate(-35 -16.26)"/></svg>