<svg id="레이어_1" data-name="레이어 1" xmlns="http://www.w3.org/2000/svg" viewBox="0 0 333.62 746.75"><defs><style>.cls-1{fill:none;stroke:#606060;stroke-width:10px;}.cls-1,.cls-2{stroke-miterlimit:10;}.cls-2{stroke:#000;stroke-width:3px;}</style></defs><path class="cls-1" d="M357.37,154.68,207.63,32.59c-.29-.23-.6-.41-.9-.61s-.48-.35-.73-.5a12.6,12.6,0,0,0-1.18-.56c-.25-.11-.49-.24-.74-.33a11.42,11.42,0,0,0-1.42-.38c-.2-.05-.39-.12-.59-.16a12.51,12.51,0,0,0-4.14,0c-.2,0-.39.11-.59.16a11.42,11.42,0,0,0-1.42.38c-.25.09-.49.22-.74.33a12.6,12.6,0,0,0-1.18.56c-.25.15-.49.33-.73.5s-.61.38-.9.61L42.63,154.68a12.07,12.07,0,1,0,15.25,18.71L69.35,164h2.37v174a12.06,12.06,0,0,0,12.07,12.06H163.6a12.06,12.06,0,0,0,12.07-12.06v-61.5a24.33,24.33,0,0,1,48.66,0v61.5a12.07,12.07,0,0,0,12.07,12.06h79.81a12.06,12.06,0,0,0,12.07-12.06V164h2.37l11.47,9.36a12.07,12.07,0,1,0,15.25-18.71Z" transform="translate(-33.19 -24.88)"/><path class="cls-2" d="M357.37,574.68,207.63,452.59c-.29-.23-.6-.41-.9-.61s-.48-.35-.73-.5a12.6,12.6,0,0,0-1.18-.56c-.25-.11-.49-.24-.74-.33a11.42,11.42,0,0,0-1.42-.38c-.2,0-.39-.12-.59-.16a12.51,12.51,0,0,0-4.14,0c-.2,0-.39.11-.59.16a11.42,11.42,0,0,0-1.42.38c-.25.09-.49.22-.74.33a12.6,12.6,0,0,0-1.18.56c-.25.15-.49.33-.73.5s-.61.38-.9.61L42.63,574.68a12.07,12.07,0,1,0,15.25,18.71L69.35,584h2.37v174a12.06,12.06,0,0,0,12.07,12.06H163.6a12.06,12.06,0,0,0,12.07-12.06v-61.5a24.33,24.33,0,0,1,48.66,0v61.5a12.07,12.07,0,0,0,12.07,12.06h79.81a12.06,12.06,0,0,0,12.07-12.06V584h2.37l11.47,9.36a12.07,12.07,0,0,0,15.25-18.71Z" transform="translate(-33.19 -24.88)"/></svg>