<svg id="레이어_1" data-name="레이어 1" xmlns="http://www.w3.org/2000/svg" viewBox="0 0 260 752.64"><defs><style>.cls-1{fill:none;stroke:#606060;stroke-width:10px;}.cls-1,.cls-2{stroke-miterlimit:10;}.cls-2{stroke:#000;stroke-width:3px;}</style></defs><path class="cls-1" d="M294.75,238.66c-18.39-28-42.36-45.77-70.24-52.22a81.63,81.63,0,1,0-48.6.14c-27.18,6.61-51.38,24.51-69.7,52C86.67,267.93,75,306.64,75,342.15a10.92,10.92,0,0,0,10.91,10.92H314.09A10.92,10.92,0,0,0,325,342.15C325,306.24,313.69,267.55,294.75,238.66Z" transform="translate(-70 -21.93)"/><path class="cls-2" d="M294.75,658.66c-18.39-28-42.36-45.77-70.24-52.22a81.63,81.63,0,1,0-48.6.14c-27.18,6.61-51.38,24.51-69.7,52C86.67,687.93,75,726.64,75,762.15a10.92,10.92,0,0,0,10.91,10.92H314.09A10.92,10.92,0,0,0,325,762.15C325,726.24,313.69,687.55,294.75,658.66Z" transform="translate(-70 -21.93)"/></svg>