<svg id="레이어_1" data-name="레이어 1" xmlns="http://www.w3.org/2000/svg" viewBox="0 0 330 731.11"><defs><style>.cls-1{fill:none;stroke:#606060;stroke-width:10px;}.cls-1,.cls-2{stroke-miterlimit:10;}.cls-2{stroke:#000;}</style></defs><path class="cls-1" d="M359.36,153a13.06,13.06,0,0,0-10.55-8.89l-94.73-13.77L211.72,44.48a13.07,13.07,0,0,0-23.44,0l-42.36,85.83L51.19,144.08A13.06,13.06,0,0,0,44,166.37l68.54,66.82L96.31,327.53a13.07,13.07,0,0,0,19,13.78L200,296.76l84.72,44.55a13.08,13.08,0,0,0,19-13.78l-16.18-94.34,68.54-66.82A13,13,0,0,0,359.36,153Z" transform="translate(-35 -32.19)"/><path class="cls-2" d="M359.36,573a13.06,13.06,0,0,0-10.55-8.89l-94.73-13.77-42.36-85.83a13.07,13.07,0,0,0-23.44,0l-42.36,85.83L51.19,564.08A13.06,13.06,0,0,0,44,586.37l68.54,66.82L96.31,747.53a13.07,13.07,0,0,0,19,13.78L200,716.76l84.72,44.55a13.08,13.08,0,0,0,19-13.78l-16.18-94.34,68.54-66.82A13,13,0,0,0,359.36,573Z" transform="translate(-35 -32.19)"/></svg>